<?xml version="1.0" encoding="us-ascii" standalone="no"?><svg xmlns="http://www.w3.org/2000/svg" xmlns:xlink="http://www.w3.org/1999/xlink" contentStyleType="text/css" height="504px" preserveAspectRatio="none" style="width:393px;height:504px;background:#FFFFFF;" version="1.1" viewBox="0 0 393 504" width="393px" zoomAndPan="magnify"><defs/><g><g id="elem_admins"><rect fill="#F1F1F1" height="118" style="stroke:#181818;stroke-width:0.5;" width="85" x="7" y="14"/><text fill="#000000" font-family="sans-serif" font-size="14" lengthAdjust="spacing" textLength="42" x="28.5" y="27.8945">Admins</text><line style="stroke:#181818;stroke-width:0.5;" x1="8" x2="91" y1="32" y2="32"/><ellipse cx="18" cy="44.5" fill="#000000" rx="3" ry="3" style="stroke:#000000;stroke-width:1.0;"/><text fill="#000000" font-family="sans-serif" font-size="14" lengthAdjust="spacing" textLength="18" x="27" y="47.8945">_id</text><line style="stroke:#181818;stroke-width:1.0;" x1="8" x2="91" y1="54" y2="54"/><ellipse cx="18" cy="66.5" fill="none" rx="3" ry="3" style="stroke:#038048;stroke-width:1.0;"/><text fill="#000000" font-family="sans-serif" font-size="14" lengthAdjust="spacing" textLength="59" x="27" y="69.8945">user_name</text><ellipse cx="18" cy="80.5" fill="none" rx="3" ry="3" style="stroke:#038048;stroke-width:1.0;"/><text fill="#000000" font-family="sans-serif" font-size="14" lengthAdjust="spacing" textLength="50" x="27" y="83.8945">password</text><ellipse cx="18" cy="94.5" fill="none" rx="3" ry="3" style="stroke:#038048;stroke-width:1.0;"/><text fill="#000000" font-family="sans-serif" font-size="14" lengthAdjust="spacing" textLength="30" x="27" y="97.8945">email</text><ellipse cx="18" cy="108.5" fill="none" rx="3" ry="3" style="stroke:#038048;stroke-width:1.0;"/><text fill="#000000" font-family="sans-serif" font-size="14" lengthAdjust="spacing" textLength="57" x="27" y="111.8945">created_at</text><ellipse cx="18" cy="122.5" fill="none" rx="3" ry="3" style="stroke:#038048;stroke-width:1.0;"/><text fill="#000000" font-family="sans-serif" font-size="14" lengthAdjust="spacing" textLength="52" x="27" y="125.8945">last_login</text></g><g id="elem_users"><rect fill="#F1F1F1" height="118" style="stroke:#181818;stroke-width:0.5;" width="85" x="204" y="379"/><text fill="#000000" font-family="sans-serif" font-size="14" lengthAdjust="spacing" textLength="30" x="231.5" y="392.8945">Users</text><line style="stroke:#181818;stroke-width:0.5;" x1="205" x2="288" y1="397" y2="397"/><ellipse cx="215" cy="409.5" fill="#000000" rx="3" ry="3" style="stroke:#000000;stroke-width:1.0;"/><text fill="#000000" font-family="sans-serif" font-size="14" lengthAdjust="spacing" textLength="18" x="224" y="412.8945">_id</text><line style="stroke:#181818;stroke-width:1.0;" x1="205" x2="288" y1="419" y2="419"/><ellipse cx="215" cy="431.5" fill="none" rx="3" ry="3" style="stroke:#038048;stroke-width:1.0;"/><text fill="#000000" font-family="sans-serif" font-size="14" lengthAdjust="spacing" textLength="59" x="224" y="434.8945">user_name</text><ellipse cx="215" cy="445.5" fill="none" rx="3" ry="3" style="stroke:#038048;stroke-width:1.0;"/><text fill="#000000" font-family="sans-serif" font-size="14" lengthAdjust="spacing" textLength="50" x="224" y="448.8945">password</text><ellipse cx="215" cy="459.5" fill="none" rx="3" ry="3" style="stroke:#038048;stroke-width:1.0;"/><text fill="#000000" font-family="sans-serif" font-size="14" lengthAdjust="spacing" textLength="30" x="224" y="462.8945">email</text><ellipse cx="215" cy="473.5" fill="none" rx="3" ry="3" style="stroke:#038048;stroke-width:1.0;"/><text fill="#000000" font-family="sans-serif" font-size="14" lengthAdjust="spacing" textLength="57" x="224" y="476.8945">created_at</text><ellipse cx="215" cy="487.5" fill="none" rx="3" ry="3" style="stroke:#038048;stroke-width:1.0;"/><text fill="#000000" font-family="sans-serif" font-size="14" lengthAdjust="spacing" textLength="52" x="224" y="490.8945">last_login</text></g><g id="elem_galleries"><rect fill="#F1F1F1" height="104" style="stroke:#181818;stroke-width:0.5;" width="87" x="256" y="207"/><text fill="#000000" font-family="sans-serif" font-size="14" lengthAdjust="spacing" textLength="47" x="276" y="220.8945">Galleries</text><line style="stroke:#181818;stroke-width:0.5;" x1="257" x2="342" y1="225" y2="225"/><ellipse cx="267" cy="237.5" fill="#000000" rx="3" ry="3" style="stroke:#000000;stroke-width:1.0;"/><text fill="#000000" font-family="sans-serif" font-size="14" lengthAdjust="spacing" textLength="18" x="276" y="240.8945">_id</text><line style="stroke:#181818;stroke-width:1.0;" x1="257" x2="342" y1="247" y2="247"/><ellipse cx="267" cy="259.5" fill="none" rx="3" ry="3" style="stroke:#038048;stroke-width:1.0;"/><text fill="#000000" font-family="sans-serif" font-size="14" lengthAdjust="spacing" textLength="30" x="276" y="262.8945">name</text><ellipse cx="267" cy="273.5" fill="none" rx="3" ry="3" style="stroke:#038048;stroke-width:1.0;"/><text fill="#000000" font-family="sans-serif" font-size="14" lengthAdjust="spacing" textLength="57" x="276" y="276.8945">created_at</text><ellipse cx="267" cy="287.5" fill="none" rx="3" ry="3" style="stroke:#038048;stroke-width:1.0;"/><text fill="#000000" font-family="sans-serif" font-size="14" lengthAdjust="spacing" textLength="61" x="276" y="290.8945">updated_at</text><ellipse cx="267" cy="301.5" fill="none" rx="3" ry="3" style="stroke:#038048;stroke-width:1.0;"/><text fill="#000000" font-family="sans-serif" font-size="14" lengthAdjust="spacing" textLength="40" x="276" y="304.8945">user_id</text></g><g id="elem_images"><rect fill="#F1F1F1" height="132" style="stroke:#181818;stroke-width:0.5;" width="81" x="305" y="7"/><text fill="#000000" font-family="sans-serif" font-size="14" lengthAdjust="spacing" textLength="39" x="326" y="20.8945">Images</text><line style="stroke:#181818;stroke-width:0.5;" x1="306" x2="385" y1="25" y2="25"/><ellipse cx="316" cy="37.5" fill="#000000" rx="3" ry="3" style="stroke:#000000;stroke-width:1.0;"/><text fill="#000000" font-family="sans-serif" font-size="14" lengthAdjust="spacing" textLength="18" x="325" y="40.8945">_id</text><line style="stroke:#181818;stroke-width:1.0;" x1="306" x2="385" y1="47" y2="47"/><ellipse cx="316" cy="59.5" fill="none" rx="3" ry="3" style="stroke:#038048;stroke-width:1.0;"/><text fill="#000000" font-family="sans-serif" font-size="14" lengthAdjust="spacing" textLength="30" x="325" y="62.8945">name</text><ellipse cx="316" cy="73.5" fill="none" rx="3" ry="3" style="stroke:#038048;stroke-width:1.0;"/><text fill="#000000" font-family="sans-serif" font-size="14" lengthAdjust="spacing" textLength="20" x="325" y="76.8945">size</text><ellipse cx="316" cy="87.5" fill="none" rx="3" ry="3" style="stroke:#038048;stroke-width:1.0;"/><text fill="#000000" font-family="sans-serif" font-size="14" lengthAdjust="spacing" textLength="24" x="325" y="90.8945">type</text><ellipse cx="316" cy="101.5" fill="none" rx="3" ry="3" style="stroke:#038048;stroke-width:1.0;"/><text fill="#000000" font-family="sans-serif" font-size="14" lengthAdjust="spacing" textLength="23" x="325" y="104.8945">data</text><ellipse cx="316" cy="115.5" fill="none" rx="3" ry="3" style="stroke:#038048;stroke-width:1.0;"/><text fill="#000000" font-family="sans-serif" font-size="14" lengthAdjust="spacing" textLength="54" x="325" y="118.8945">upload_at</text><ellipse cx="316" cy="129.5" fill="none" rx="3" ry="3" style="stroke:#038048;stroke-width:1.0;"/><text fill="#000000" font-family="sans-serif" font-size="14" lengthAdjust="spacing" textLength="55" x="325" y="132.8945">gallery_id</text></g><g id="elem_ManagerInterface"><rect fill="#F1F1F1" height="72" style="stroke:#181818;stroke-width:0.5;" width="119" x="135" y="37"/><text fill="#000000" font-family="sans-serif" font-size="14" lengthAdjust="spacing" textLength="99" x="145" y="50.8945">ManagerInterface</text><line style="stroke:#181818;stroke-width:1.0;" x1="135" x2="254" y1="55" y2="55"/><text fill="#000000" font-family="sans-serif" font-size="14" lengthAdjust="spacing" textLength="84" x="152.5" y="68.8945">usersOperation</text><line style="stroke:#181818;stroke-width:1.0;" x1="135" x2="254" y1="73" y2="73"/><text fill="#000000" font-family="sans-serif" font-size="14" lengthAdjust="spacing" textLength="102" x="143.5" y="86.8945">galleriesOperation</text><line style="stroke:#181818;stroke-width:1.0;" x1="135" x2="254" y1="91" y2="91"/><text fill="#000000" font-family="sans-serif" font-size="14" lengthAdjust="spacing" textLength="96" x="146.5" y="104.8945">imagesOperation</text></g><!--link ManagerInterface to users--><g id="link_ManagerInterface_users"><path d="M255,64 C276.78,64 256.99,91.42 254,113 C248.32,153.95 235.77,162 230.5,203 C223.03,261.16 228.192,321.9888 234.862,369.2788 " fill="none" id="ManagerInterface-to-users" style="stroke:#181818;stroke-width:1.0;"/><polygon fill="#181818" points="235.7,375.22,238.4038,365.7496,235.0017,370.269,230.4822,366.8669,235.7,375.22" style="stroke:#181818;stroke-width:1.0;"/></g><!--link ManagerInterface to galleries--><g id="link_ManagerInterface_galleries"><path d="M255,82 C267.69,82 281.0037,145.6967 289.8837,197.3667 " fill="none" id="ManagerInterface-to-galleries" style="stroke:#181818;stroke-width:1.0;"/><polygon fill="#181818" points="290.9,203.28,293.3178,193.7325,290.0531,198.3522,285.4334,195.0875,290.9,203.28" style="stroke:#181818;stroke-width:1.0;"/></g><!--link ManagerInterface to images--><g id="link_ManagerInterface_images"><path d="M255,100 C269.12,105.95 278.0599,107.7357 291.5299,105.5157 " fill="none" id="ManagerInterface-to-images" style="stroke:#181818;stroke-width:1.0;"/><polygon fill="#181818" points="297.45,104.54,287.9193,102.0568,292.5166,105.3531,289.2203,109.9503,297.45,104.54" style="stroke:#181818;stroke-width:1.0;"/></g><!--link admins to ManagerInterface--><g id="link_admins_ManagerInterface"><path codeLine="48" d="M92.26,73 C103.85,73 109.43,73 121.01,73 " fill="none" id="admins-to-ManagerInterface" style="stroke:#181818;stroke-width:1.0;"/><polygon fill="#181818" points="127.01,73,118.01,69,122.01,73,118.01,77,127.01,73" style="stroke:#181818;stroke-width:1.0;"/></g><!--link images to galleries--><g id="link_images_galleries"><path codeLine="49" d="M304,128 C297.32,128 302.93,136.65 305,143 C314.8,173.01 333.75,172.82 343,203 C347.3,217.03 364.67,236 350,236 " fill="none" id="images-to-galleries" style="stroke:#181818;stroke-width:1.0;"/><polygon fill="#181818" points="344,236,353,240,349,236,353,232,344,236" style="stroke:#181818;stroke-width:1.0;"/></g><!--link galleries to users--><g id="link_galleries_users"><path codeLine="50" d="M315.73,314.69 C325.22,356.85 334.75,408 296,408 " fill="none" id="galleries-to-users" style="stroke:#181818;stroke-width:1.0;"/><polygon fill="#181818" points="290,408,299,412,295,408,299,404,290,408" style="stroke:#181818;stroke-width:1.0;"/></g><!--SRC=[jPAzJiGm48HxFyNgoaDvWHH8LEWAH4KTBV4I6VbFja_eGBmxzgu9oGdHqIGxcybyuoZX-PNc0eSxxOpF1y0Co2DyA83ZP7Iz3KEztC0vKveyEc8LCUUta3GBScWiJtCYBAGdB2mjvZBPi1YlFfKAdVPKamJMCl-NTO_MKZ8alELR_S9SSLUvvwXtibMhxsqO9uTB1nWU_qhFvbs6Seaor7Zi91jm1KdNIsSvZF20lgQdao-KNd2cHW7vXe-H4XOJF1o7Mrdnm_N0UyEwPfEKtZjaryZzXwYxQxuIqpZ-LAt7tQIFOsk_bVthiOrRYkKB]--></g></svg>