<?xml version="1.0" encoding="us-ascii" standalone="no"?><svg xmlns="http://www.w3.org/2000/svg" xmlns:xlink="http://www.w3.org/1999/xlink" contentStyleType="text/css" height="532px" preserveAspectRatio="none" style="width:218px;height:532px;background:#FFFFFF;" version="1.1" viewBox="0 0 218 532" width="218px" zoomAndPan="magnify"><defs/><g><!--class Admin--><g id="elem_Admin"><rect codeLine="2" fill="#F1F1F1" height="132" id="Admin" rx="2.5" ry="2.5" style="stroke:#181818;stroke-width:0.5;" width="71" x="7" y="7"/><ellipse cx="22.45" cy="23" fill="#ADD1B2" rx="11" ry="11" style="stroke:#181818;stroke-width:1.0;"/><path d="M18.4969,29.5 L26.4031,29.5 L26.4031,27.3906 L21.0125,27.3906 L21.0125,24.0313 L25.4188,24.0313 L25.4188,21.9219 L21.0125,21.9219 L21.0125,19.0156 L26.2156,19.0156 L26.2156,16.9063 L18.4969,16.9063 L18.4969,29.5 Z " fill="#000000"/><text fill="#000000" font-family="sans-serif" font-size="14" lengthAdjust="spacing" textLength="38" x="36.55" y="27.8945">Admin</text><line style="stroke:#181818;stroke-width:0.5;" x1="8" x2="77" y1="39" y2="39"/><text fill="#000000" font-family="sans-serif" font-size="14" lengthAdjust="spacing" textLength="11" x="13" y="54.8945">id</text><text fill="#000000" font-family="sans-serif" font-size="14" lengthAdjust="spacing" textLength="59" x="13" y="68.8945">user_name</text><text fill="#000000" font-family="sans-serif" font-size="14" lengthAdjust="spacing" textLength="50" x="13" y="82.8945">password</text><text fill="#000000" font-family="sans-serif" font-size="14" lengthAdjust="spacing" textLength="30" x="13" y="96.8945">email</text><text fill="#000000" font-family="sans-serif" font-size="14" lengthAdjust="spacing" textLength="57" x="13" y="110.8945">created_at</text><text fill="#000000" font-family="sans-serif" font-size="14" lengthAdjust="spacing" textLength="52" x="13" y="124.8945">last_login</text><line style="stroke:#181818;stroke-width:0.5;" x1="8" x2="77" y1="131" y2="131"/></g><!--class User--><g id="elem_User"><rect codeLine="10" fill="#F1F1F1" height="132" id="User" rx="2.5" ry="2.5" style="stroke:#181818;stroke-width:0.5;" width="71" x="140" y="7"/><ellipse cx="160.85" cy="23" fill="#ADD1B2" rx="11" ry="11" style="stroke:#181818;stroke-width:1.0;"/><path d="M156.8969,29.5 L164.8031,29.5 L164.8031,27.3906 L159.4125,27.3906 L159.4125,24.0313 L163.8188,24.0313 L163.8188,21.9219 L159.4125,21.9219 L159.4125,19.0156 L164.6156,19.0156 L164.6156,16.9063 L156.8969,16.9063 L156.8969,29.5 Z " fill="#000000"/><text fill="#000000" font-family="sans-serif" font-size="14" lengthAdjust="spacing" textLength="26" x="176.15" y="27.8945">User</text><line style="stroke:#181818;stroke-width:0.5;" x1="141" x2="210" y1="39" y2="39"/><text fill="#000000" font-family="sans-serif" font-size="14" lengthAdjust="spacing" textLength="11" x="146" y="54.8945">id</text><text fill="#000000" font-family="sans-serif" font-size="14" lengthAdjust="spacing" textLength="59" x="146" y="68.8945">user_name</text><text fill="#000000" font-family="sans-serif" font-size="14" lengthAdjust="spacing" textLength="50" x="146" y="82.8945">password</text><text fill="#000000" font-family="sans-serif" font-size="14" lengthAdjust="spacing" textLength="30" x="146" y="96.8945">email</text><text fill="#000000" font-family="sans-serif" font-size="14" lengthAdjust="spacing" textLength="57" x="146" y="110.8945">created_at</text><text fill="#000000" font-family="sans-serif" font-size="14" lengthAdjust="spacing" textLength="52" x="146" y="124.8945">last_login</text><line style="stroke:#181818;stroke-width:0.5;" x1="141" x2="210" y1="131" y2="131"/></g><!--class Gallery--><g id="elem_Gallery"><rect codeLine="18" fill="#F1F1F1" height="104" id="Gallery" rx="2.5" ry="2.5" style="stroke:#181818;stroke-width:0.5;" width="73" x="72" y="214"/><ellipse cx="87.45" cy="230" fill="#ADD1B2" rx="11" ry="11" style="stroke:#181818;stroke-width:1.0;"/><path d="M83.4969,236.5 L91.4031,236.5 L91.4031,234.3906 L86.0125,234.3906 L86.0125,231.0313 L90.4188,231.0313 L90.4188,228.9219 L86.0125,228.9219 L86.0125,226.0156 L91.2156,226.0156 L91.2156,223.9063 L83.4969,223.9063 L83.4969,236.5 Z " fill="#000000"/><text fill="#000000" font-family="sans-serif" font-size="14" lengthAdjust="spacing" textLength="40" x="101.55" y="234.8945">Gallery</text><line style="stroke:#181818;stroke-width:0.5;" x1="73" x2="144" y1="246" y2="246"/><text fill="#000000" font-family="sans-serif" font-size="14" lengthAdjust="spacing" textLength="11" x="78" y="261.8945">id</text><text fill="#000000" font-family="sans-serif" font-size="14" lengthAdjust="spacing" textLength="30" x="78" y="275.8945">name</text><text fill="#000000" font-family="sans-serif" font-size="14" lengthAdjust="spacing" textLength="57" x="78" y="289.8945">created_at</text><text fill="#000000" font-family="sans-serif" font-size="14" lengthAdjust="spacing" textLength="61" x="78" y="303.8945">updated_at</text><line style="stroke:#181818;stroke-width:0.5;" x1="73" x2="144" y1="310" y2="310"/></g><!--class Image--><g id="elem_Image"><rect codeLine="25" fill="#F1F1F1" height="132" id="Image" rx="2.5" ry="2.5" style="stroke:#181818;stroke-width:0.5;" width="67" x="75" y="393"/><ellipse cx="90" cy="409" fill="#ADD1B2" rx="11" ry="11" style="stroke:#181818;stroke-width:1.0;"/><path d="M86.0469,415.5 L93.9531,415.5 L93.9531,413.3906 L88.5625,413.3906 L88.5625,410.0313 L92.9688,410.0313 L92.9688,407.9219 L88.5625,407.9219 L88.5625,405.0156 L93.7656,405.0156 L93.7656,402.9063 L86.0469,402.9063 L86.0469,415.5 Z " fill="#000000"/><text fill="#000000" font-family="sans-serif" font-size="14" lengthAdjust="spacing" textLength="35" x="104" y="413.8945">Image</text><line style="stroke:#181818;stroke-width:0.5;" x1="76" x2="141" y1="425" y2="425"/><text fill="#000000" font-family="sans-serif" font-size="14" lengthAdjust="spacing" textLength="11" x="81" y="440.8945">id</text><text fill="#000000" font-family="sans-serif" font-size="14" lengthAdjust="spacing" textLength="30" x="81" y="454.8945">name</text><text fill="#000000" font-family="sans-serif" font-size="14" lengthAdjust="spacing" textLength="20" x="81" y="468.8945">size</text><text fill="#000000" font-family="sans-serif" font-size="14" lengthAdjust="spacing" textLength="24" x="81" y="482.8945">type</text><text fill="#000000" font-family="sans-serif" font-size="14" lengthAdjust="spacing" textLength="23" x="81" y="496.8945">data</text><text fill="#000000" font-family="sans-serif" font-size="14" lengthAdjust="spacing" textLength="54" x="81" y="510.8945">upload_at</text><line style="stroke:#181818;stroke-width:0.5;" x1="76" x2="141" y1="517" y2="517"/></g><!--reverse link Gallery to Image--><g id="link_Gallery_Image"><path codeLine="34" d="M108.5,326.44 C108.5,349.31 108.5,368.5 108.5,392.78 " fill="none" id="Gallery-backto-Image" style="stroke:#181818;stroke-width:1.0;"/><line style="stroke:#181818;stroke-width:1.0;" x1="108.5" x2="102.5" y1="326.44" y2="318.44"/><line style="stroke:#181818;stroke-width:1.0;" x1="108.5" x2="114.5" y1="326.44" y2="318.44"/><line style="stroke:#181818;stroke-width:1.0;" x1="108.5" x2="108.5" y1="326.44" y2="318.44"/><line style="stroke:#181818;stroke-width:1.0;" x1="104.5" x2="112.5" y1="328.44" y2="328.44"/><text fill="#000000" font-family="sans-serif" font-size="13" lengthAdjust="spacing" textLength="26" x="109.5" y="360.0449">&#23646;&#20110;</text><text fill="#000000" font-family="sans-serif" font-size="13" lengthAdjust="spacing" textLength="6" x="102.1156" y="337.0366">1</text><text fill="#000000" font-family="sans-serif" font-size="13" lengthAdjust="spacing" textLength="7" x="101.1172" y="382.8712">n</text></g><!--reverse link User to Gallery--><g id="link_User_Gallery"><path codeLine="35" d="M149.8903,147.0084 C141.3603,171.3084 134.48,190.95 126.46,213.79 " fill="none" id="User-backto-Gallery" style="stroke:#181818;stroke-width:1.0;"/><line style="stroke:#181818;stroke-width:1.0;" x1="149.8903" x2="146.8787" y1="147.0084" y2="137.4727"/><line style="stroke:#181818;stroke-width:1.0;" x1="149.8903" x2="158.2013" y1="147.0084" y2="141.4473"/><line style="stroke:#181818;stroke-width:1.0;" x1="149.8903" x2="152.54" y1="147.0084" y2="139.46"/><line style="stroke:#181818;stroke-width:1.0;" x1="145.4536" x2="153.0021" y1="147.5707" y2="150.2204"/><text fill="#000000" font-family="sans-serif" font-size="13" lengthAdjust="spacing" textLength="26" x="142.5" y="181.0449">&#23646;&#20110;</text><text fill="#000000" font-family="sans-serif" font-size="13" lengthAdjust="spacing" textLength="6" x="143.8629" y="158.0289">1</text><text fill="#000000" font-family="sans-serif" font-size="13" lengthAdjust="spacing" textLength="7" x="121.4031" y="203.9458">n</text></g><!--reverse link Admin to User--><g id="link_Admin_User"><path codeLine="37" d="M86.49,73 C105.57,73 120.93,73 139.94,73 " fill="none" id="Admin-backto-User" style="stroke:#181818;stroke-width:1.0;"/><line style="stroke:#181818;stroke-width:1.0;" x1="86.49" x2="78.49" y1="73" y2="79"/><line style="stroke:#181818;stroke-width:1.0;" x1="86.49" x2="78.49" y1="73" y2="67"/><line style="stroke:#181818;stroke-width:1.0;" x1="86.49" x2="78.49" y1="73" y2="73"/><line style="stroke:#181818;stroke-width:1.0;" x1="88.49" x2="88.49" y1="77" y2="69"/><text fill="#000000" font-family="sans-serif" font-size="13" lengthAdjust="spacing" textLength="26" x="96" y="67.0449">&#31649;&#29702;</text><text fill="#000000" font-family="sans-serif" font-size="13" lengthAdjust="spacing" textLength="6" x="85.9225" y="69.8059">1</text><text fill="#000000" font-family="sans-serif" font-size="13" lengthAdjust="spacing" textLength="7" x="124.8839" y="69.7043">n</text></g><!--reverse link Admin to Gallery--><g id="link_Admin_Gallery"><path codeLine="38" d="M67.7337,147.021 C76.1337,171.321 82.91,190.95 90.8,213.79 " fill="none" id="Admin-backto-Gallery" style="stroke:#181818;stroke-width:1.0;"/><line style="stroke:#181818;stroke-width:1.0;" x1="67.7337" x2="59.4493" y1="147.021" y2="141.4203"/><line style="stroke:#181818;stroke-width:1.0;" x1="67.7337" x2="70.7907" y1="147.021" y2="137.4997"/><line style="stroke:#181818;stroke-width:1.0;" x1="67.7337" x2="65.12" y1="147.021" y2="139.46"/><line style="stroke:#181818;stroke-width:1.0;" x1="64.6066" x2="72.1676" y1="150.2181" y2="147.6044"/><text fill="#000000" font-family="sans-serif" font-size="13" lengthAdjust="spacing" textLength="26" x="80.5" y="181.0449">&#31649;&#29702;</text><text fill="#000000" font-family="sans-serif" font-size="13" lengthAdjust="spacing" textLength="6" x="61.1433" y="158.0289">1</text><text fill="#000000" font-family="sans-serif" font-size="13" lengthAdjust="spacing" textLength="7" x="80.9513" y="203.9458">n</text></g><!--SRC=[IyqhoIofL71CoStCg-PI08BC531LMfnQ59-Nc9iAvXKa5XUNvnT1f59p4pDpmApaejJ4ajIK-CGIC3SdiRWaFYS_FJEFgvOh5M9oAD0ScXZidfYJarfKYM8st5Wq_QK5AJ1kBHVC0C_SnFHKxDgBCwiWZ9BA0WW3g3yHQbHEVYBC9AWR59GCbHHgQtHr5PJob23cAbWfFDquxyckFYvG0A0gWEg2g-02XpvC3LW9I9ELmlDr2vzFQCCY3JS1gW80]--></g></svg>