<?xml version="1.0" encoding="us-ascii" standalone="no"?><svg xmlns="http://www.w3.org/2000/svg" xmlns:xlink="http://www.w3.org/1999/xlink" contentStyleType="text/css" height="273px" preserveAspectRatio="none" style="width:532px;height:273px;background:#FFFFFF;" version="1.1" viewBox="0 0 532 273" width="532px" zoomAndPan="magnify"><defs/><g><!--entity system--><g id="elem_system"><rect fill="#F1F1F1" height="20" rx="2.5" ry="2.5" style="stroke:#181818;stroke-width:0.5;" width="90" x="242" y="7"/><text fill="#000000" font-family="sans-serif" font-size="14" lengthAdjust="spacing" textLength="70" x="252" y="21.8945">&#22270;&#29255;&#19979;&#36733;&#31449;</text></g><!--entity user--><g id="elem_user"><rect fill="#F1F1F1" height="20" rx="2.5" ry="2.5" style="stroke:#181818;stroke-width:0.5;" width="48" x="173" y="87"/><text fill="#000000" font-family="sans-serif" font-size="14" lengthAdjust="spacing" textLength="28" x="183" y="101.8945">&#29992;&#25143;</text></g><!--entity admin--><g id="elem_admin"><rect fill="#F1F1F1" height="20" rx="2.5" ry="2.5" style="stroke:#181818;stroke-width:0.5;" width="62" x="346" y="87"/><text fill="#000000" font-family="sans-serif" font-size="14" lengthAdjust="spacing" textLength="42" x="356" y="101.8945">&#31649;&#29702;&#21592;</text></g><!--entity upload--><g id="elem_upload"><rect fill="#F1F1F1" height="20" rx="2.5" ry="2.5" style="stroke:#181818;stroke-width:0.5;" width="48" x="7" y="167"/><text fill="#000000" font-family="sans-serif" font-size="14" lengthAdjust="spacing" textLength="28" x="17" y="181.8945">&#19978;&#20256;</text></g><!--entity share--><g id="elem_share"><rect fill="#F1F1F1" height="20" rx="2.5" ry="2.5" style="stroke:#181818;stroke-width:0.5;" width="48" x="90" y="167"/><text fill="#000000" font-family="sans-serif" font-size="14" lengthAdjust="spacing" textLength="28" x="100" y="181.8945">&#20998;&#20139;</text></g><!--entity download--><g id="elem_download"><rect fill="#F1F1F1" height="20" rx="2.5" ry="2.5" style="stroke:#181818;stroke-width:0.5;" width="48" x="173" y="167"/><text fill="#000000" font-family="sans-serif" font-size="14" lengthAdjust="spacing" textLength="28" x="183" y="181.8945">&#19979;&#36733;</text></g><!--entity remove--><g id="elem_remove"><rect fill="#F1F1F1" height="20" rx="2.5" ry="2.5" style="stroke:#181818;stroke-width:0.5;" width="48" x="256" y="167"/><text fill="#000000" font-family="sans-serif" font-size="14" lengthAdjust="spacing" textLength="28" x="266" y="181.8945">&#21024;&#38500;</text></g><!--entity userManage--><g id="elem_userManage"><rect fill="#F1F1F1" height="20" rx="2.5" ry="2.5" style="stroke:#181818;stroke-width:0.5;" width="76" x="339" y="167"/><text fill="#000000" font-family="sans-serif" font-size="14" lengthAdjust="spacing" textLength="56" x="349" y="181.8945">&#29992;&#25143;&#31649;&#29702;</text></g><!--entity imgManage--><g id="elem_imgManage"><rect fill="#F1F1F1" height="20" rx="2.5" ry="2.5" style="stroke:#181818;stroke-width:0.5;" width="76" x="450" y="167"/><text fill="#000000" font-family="sans-serif" font-size="14" lengthAdjust="spacing" textLength="56" x="460" y="181.8945">&#22270;&#29255;&#31649;&#29702;</text></g><!--entity userRemove--><g id="elem_userRemove"><rect fill="#F1F1F1" height="20" rx="2.5" ry="2.5" style="stroke:#181818;stroke-width:0.5;" width="76" x="283" y="247"/><text fill="#000000" font-family="sans-serif" font-size="14" lengthAdjust="spacing" textLength="56" x="293" y="261.8945">&#21024;&#38500;&#29992;&#25143;</text></g><!--entity userUpdate--><g id="elem_userUpdate"><rect fill="#F1F1F1" height="20" rx="2.5" ry="2.5" style="stroke:#181818;stroke-width:0.5;" width="76" x="394" y="247"/><text fill="#000000" font-family="sans-serif" font-size="14" lengthAdjust="spacing" textLength="56" x="404" y="261.8945">&#20462;&#25913;&#29992;&#25143;</text></g><!--reverse link system to user--><g id="link_system_user"><path d="M271.7855,31.1792 C254.5555,46.1092 225.34,71.44 207.94,86.51 " fill="none" id="system-backto-user" style="stroke:#181818;stroke-width:1.0;"/><polygon fill="#181818" points="276.32,27.25,266.8988,30.1208,272.5413,30.5243,272.1377,36.1668,276.32,27.25" style="stroke:#181818;stroke-width:1.0;"/></g><!--reverse link system to admin--><g id="link_system_admin"><path d="M302.2145,31.1792 C319.4445,46.1092 348.66,71.44 366.06,86.51 " fill="none" id="system-backto-admin" style="stroke:#181818;stroke-width:1.0;"/><polygon fill="#181818" points="297.68,27.25,301.8623,36.1668,301.4587,30.5243,307.1012,30.1208,297.68,27.25" style="stroke:#181818;stroke-width:1.0;"/></g><!--reverse link user to upload--><g id="link_user_upload"><path d="M171.5494,109.9611 C139.6394,124.9511 83.05,151.55 51.09,166.56 " fill="none" id="user-backto-upload" style="stroke:#181818;stroke-width:1.0;"/><polygon fill="#181818" points="176.98,107.41,167.1333,107.6162,172.4545,109.5359,170.5348,114.8571,176.98,107.41" style="stroke:#181818;stroke-width:1.0;"/></g><!--reverse link user to share--><g id="link_user_share"><path d="M182.7773,111.3585 C166.8873,126.2885 140.14,151.44 124.09,166.51 " fill="none" id="user-backto-share" style="stroke:#181818;stroke-width:1.0;"/><polygon fill="#181818" points="187.15,107.25,177.852,110.4976,183.5061,110.6737,183.33,116.3279,187.15,107.25" style="stroke:#181818;stroke-width:1.0;"/></g><!--reverse link user to download--><g id="link_user_download"><path d="M197,113.25 C197,128.27 197,151.75 197,166.76 " fill="none" id="user-backto-download" style="stroke:#181818;stroke-width:1.0;"/><polygon fill="#181818" points="197,107.25,193,116.25,197,112.25,201,116.25,197,107.25" style="stroke:#181818;stroke-width:1.0;"/></g><!--reverse link user to remove--><g id="link_user_remove"><path d="M211.2227,111.3585 C227.1127,126.2885 253.86,151.44 269.91,166.51 " fill="none" id="user-backto-remove" style="stroke:#181818;stroke-width:1.0;"/><polygon fill="#181818" points="206.85,107.25,210.67,116.3279,210.4939,110.6737,216.148,110.4976,206.85,107.25" style="stroke:#181818;stroke-width:1.0;"/></g><!--reverse link userManage to userUpdate--><g id="link_userManage_userUpdate"><path d="M386.9852,192.1552 C397.5652,207.1752 414.9,231.75 425.48,246.76 " fill="none" id="userManage-backto-userUpdate" style="stroke:#181818;stroke-width:1.0;"/><polygon fill="#181818" points="383.53,187.25,385.4427,196.9113,386.4094,191.3377,391.983,192.3044,383.53,187.25" style="stroke:#181818;stroke-width:1.0;"/></g><!--reverse link userManage to userRemove--><g id="link_userManage_userRemove"><path d="M366.8615,192.1245 C356.0815,207.1445 338.41,231.75 327.64,246.76 " fill="none" id="userManage-backto-userRemove" style="stroke:#181818;stroke-width:1.0;"/><polygon fill="#181818" points="370.36,187.25,361.8626,192.2294,367.4446,191.3121,368.362,196.8941,370.36,187.25" style="stroke:#181818;stroke-width:1.0;"/></g><!--reverse link admin to userManage--><g id="link_admin_userManage"><path d="M377,113.25 C377,128.27 377,151.75 377,166.76 " fill="none" id="admin-backto-userManage" style="stroke:#181818;stroke-width:1.0;"/><polygon fill="#181818" points="377,107.25,373,116.25,377,112.25,381,116.25,377,107.25" style="stroke:#181818;stroke-width:1.0;"/></g><!--reverse link admin to imgManage--><g id="link_admin_imgManage"><path d="M395.0794,110.6993 C416.3294,125.6293 453.05,151.44 474.5,166.51 " fill="none" id="admin-backto-imgManage" style="stroke:#181818;stroke-width:1.0;"/><polygon fill="#181818" points="390.17,107.25,395.2346,115.6969,394.2612,110.1244,399.8337,109.151,390.17,107.25" style="stroke:#181818;stroke-width:1.0;"/></g><!--SRC=[RL1DJW8n5Dxt5BDpDSxUU0Ks91xWXJR39DEVj4NZ1H1r8maB21j8N9YGi1MDm6K6Hc-XdTSf9N7HnVk-r-_dNVIjLUOgorG9mWvuUTcJFFjxIWecR4eBo3LmGdgWQNAOx-h7Xshp_BtTrgjP0YOnzyOoZdGzUJkEtXqwC4nxRBsiNuQ7yTJ1G7aX2C4_oNMQuc8q-mtyMssUggz5ewTA2TI760shprNZtGVDsbMNoO5KtebuUV4pUtMuPbpUCaAS8rgZPfXHBOn19o2jGjGLsxMDEo0WP_6fJdp1Sq_7mSulraK3BBHV7oSVv_oDec1z1HGBD_JKFumN9Srb0-gpdC0etoy0]--></g></svg>